# xmcd
#
# Track frame offsets: 
#        150
#        18052
#        34661
#        50186
#        60073
#        71999
#        91192
#        108221
#        120847
#        139828
#
# Disc length: 2121 seconds
#
# Revision: 0
# Processed by: cddbd v1.5.2PL0 Copyright (c) Steve Scherf et al.
# Submitted via: ExactAudioCopyFreeDBPlugin 1.0
#
DISCID=7808470a
DTITLE=Ironing Board Sam - Super Spirit
DYEAR=2015
DGENRE=Blues
TTITLE0=Baby You Got It
TTITLE1=Hold On
TTITLE2=I Still Love You
TTITLE3=I Can't Take It
TTITLE4=Honey Babe
TTITLE5=Loose Diamonds
TTITLE6=I'm Gone
TTITLE7=I Wanna Be There
TTITLE8=The Thrill Hunt
TTITLE9=Super Spirit
EXTD=
EXTT0=
EXTT1=
EXTT2=
EXTT3=
EXTT4=
EXTT5=
EXTT6=
EXTT7=
EXTT8=
EXTT9=
PLAYORDER=
